<svg width="70" height="69" viewBox="0 0 70 69" fill="none" xmlns="http://www.w3.org/2000/svg">
<path d="M67.9842 28.0071L67.9842 28.0072C70.0036 40.2902 66.1309 49.1733 62.4662 53.839C60.6324 56.1729 57.6082 58.781 55.0149 60.8213C53.7233 61.8374 52.5479 62.7056 51.6954 63.3197C51.2693 63.6266 50.9241 63.8699 50.6858 64.0362C50.5667 64.1193 50.4742 64.1832 50.4118 64.2262L50.341 64.2748L50.3233 64.2869L50.319 64.2899L50.3179 64.2906L50.3177 64.2907L50.5988 64.7042L50.3177 64.2907L49.8944 64.5785L50.192 64.9949L52.1821 67.78H32.4404L39.5361 50.2789L41.5571 52.3666L41.8128 52.6307L42.1411 52.4654L41.9164 52.0188C42.1411 52.4654 42.1413 52.4653 42.1415 52.4652L42.1421 52.4649L42.1438 52.4641L42.1497 52.4611L42.1707 52.4503C42.1888 52.441 42.2151 52.4273 42.249 52.4094C42.3168 52.3736 42.4152 52.3206 42.5404 52.2509C42.7907 52.1115 43.1483 51.9048 43.5827 51.6329C44.4508 51.0896 45.6285 50.2841 46.8691 49.2337C49.3406 47.1413 52.1109 44.0355 53.1234 40.0523L53.1234 40.052C53.8848 37.0508 54.0986 33.7298 53.6282 30.7357C53.1812 27.8909 52.1068 25.2873 50.2372 23.5593C52.5703 18.4755 55.0772 16.4899 56.9325 15.745C57.8844 15.3629 58.6872 15.2976 59.2432 15.3237C59.5219 15.3368 59.7393 15.373 59.8829 15.4043C59.9546 15.4199 60.0078 15.4344 60.0407 15.444C60.0572 15.4489 60.0686 15.4525 60.0747 15.4545L60.0784 15.4558L60.0794 15.4561L60.0794 15.4561L60.0798 15.4563L60.1232 15.4721L60.1719 15.4796L60.4914 15.5288C63.1718 17.2016 66.7897 20.7384 67.9842 28.0071Z" fill="#5F2EEA" stroke="black"/>
<path d="M19.7272 47.0495L19.729 47.0517L20.1199 46.74C19.729 47.0517 19.7291 47.0518 19.7292 47.0519L19.7295 47.0523L19.7305 47.0537L19.7343 47.0583L19.7483 47.0758C19.7605 47.0909 19.7785 47.113 19.8019 47.1416C19.8486 47.1989 19.9174 47.2822 20.0063 47.388C20.184 47.5995 20.4426 47.901 20.7678 48.2634C21.4177 48.9877 22.3364 49.9582 23.4105 50.9409C24.4831 51.9222 25.7199 52.9245 27.0064 53.7057C27.3217 53.8971 27.6423 54.0767 27.9662 54.2401L11.8013 54.6688C11.7995 54.6685 11.7976 54.6683 11.7956 54.668C11.7826 54.666 11.7661 54.6635 11.7463 54.6602C11.6832 54.6496 11.5868 54.6318 11.4611 54.6032C11.2098 54.546 10.8422 54.4462 10.3924 54.2774C9.49317 53.9397 8.26596 53.3263 6.98068 52.2255C4.42024 50.0325 1.57451 45.8571 0.691995 37.917C-0.186758 29.9998 2.09556 23.2686 4.60842 18.506C5.86435 16.1256 7.17529 14.2421 8.17089 12.9553C8.66853 12.3121 9.08692 11.8185 9.37957 11.4871C9.52588 11.3215 9.64072 11.1964 9.71826 11.1134C9.75703 11.0719 9.78648 11.041 9.80587 11.0208L9.82731 10.9986L9.83083 10.995L9.83115 10.9947L9.84253 10.9835L9.88839 10.9388C9.92903 10.8994 9.98948 10.8409 10.068 10.7657C10.2251 10.6154 10.4544 10.3982 10.742 10.1324C11.3174 9.60043 12.1249 8.87461 13.0533 8.09911C14.9245 6.53611 17.2358 4.8148 19.1168 4.03789L19.7362 3.78206L19.3146 3.26117L17.0795 0.5H36.7547L29.88 17.9971L28.3687 15.7288L28.1339 15.3764L27.7476 15.55L27.9526 16.0061C27.7476 15.55 27.7473 15.5502 27.7469 15.5503L27.7457 15.5509L27.7416 15.5528L27.7271 15.5594L27.6732 15.5844C27.6264 15.6063 27.5584 15.6386 27.4711 15.6813C27.2965 15.7666 27.0444 15.8936 26.7304 16.0619C26.1026 16.3983 25.2259 16.9005 24.2248 17.5665C22.2262 18.8961 19.714 20.8901 17.6998 23.5356C15.683 26.1846 14.1545 29.5025 14.1628 33.4625C14.1711 37.4235 15.7168 41.9614 19.7272 47.0495Z" fill="#5F2EEA" stroke="black"/>
<path d="M38.3847 14.1209L38.3848 14.1209C41.8567 13.7954 48.7018 13.8877 53.1644 13.9969C51.6891 14.8555 50.539 16.1872 49.6719 17.5103C48.4749 19.3367 47.7565 21.2414 47.4376 22.0867C47.3925 22.2063 47.3554 22.3048 47.3261 22.3787L47.3253 22.3806C46.1154 25.4679 45.1155 27.9593 44.1322 30.4093C42.6532 34.0947 41.2117 37.6865 39.1493 43.0721L39.1492 43.0725L39.6151 43.2505L39.6152 43.2505L39.1492 43.0725L39.1491 43.0728L39.1486 43.074L39.1466 43.0793L39.1382 43.1012L39.1044 43.188C39.0745 43.2644 39.0301 43.377 38.9726 43.5205C38.8575 43.8074 38.6897 44.2178 38.4798 44.71C38.0595 45.6951 37.472 47.0035 36.8009 48.3029C36.1274 49.607 35.3804 50.881 34.6439 51.8096C34.2751 52.2746 33.9238 52.6337 33.6016 52.8671C33.3057 53.0814 33.0755 53.1603 32.9031 53.1636C29.0572 51.8799 25.4977 49.6127 22.1893 45.032L22.314 44.7726C23.8428 41.7623 26.8825 34.9961 30.8125 22.2875L30.8131 22.2855L30.818 22.2707C30.8225 22.2571 30.8295 22.2362 30.8389 22.2085C30.8578 22.153 30.8867 22.0703 30.9256 21.964C31.0035 21.7515 31.1213 21.4452 31.2797 21.0753C31.597 20.3341 32.0744 19.3436 32.7155 18.3407C34.0147 16.308 35.9016 14.3535 38.3847 14.1209Z" fill="#5F2EEA" stroke="black"/>
</svg>
